<svg width="437" height="61" viewBox="0 0 437 61" fill="none" xmlns="http://www.w3.org/2000/svg">
<path d="M0 60.6077H39.5819V49.1633H0V60.6077ZM0 35.9958H39.5819V24.317H0V35.9958ZM0 -0.529419V11.1494H39.5819V-0.529419H0Z" fill="#6C4AB6"/>
<path d="M50.8885 3.38939L63.194 -0.529419V48.9289H90.7059V60.6072H50.8885V3.38939Z" fill="#6C4AB6"/>
<path d="M98.8688 3.38939L111.174 -0.529419V48.9289H138.686V60.6072H98.8688V3.38939Z" fill="#6C4AB6"/>
<path d="M134.008 -0.529419H147.262L162.076 40.0873L176.891 -0.529419H190.066L166.991 60.6077H157.083L134.008 -0.529419Z" fill="#6C4AB6"/>
<path d="M218.118 -0.529419H207.513L184.352 60.6077H197.378L212.796 18.2269L228.347 60.6077H241.373L218.118 -0.529419Z" fill="#6C4AB6"/>
<path d="M212.821 29.2777L222.552 44.3425L203.173 44.3425L212.821 29.2777Z" fill="#F6C90E"/>
<path d="M254.575 11.1494H237.958V-0.529419H283.732V11.1494H266.88V60.6077H254.575V11.1494Z" fill="#6C4AB6"/>
<path d="M292.1 3.38938L304.406 -0.529419V60.6077H292.1V3.38938Z" fill="#6C4AB6"/>
<path d="M333.632 58.4917C329.947 56.9317 326.64 54.7058 323.803 51.8686C320.966 49.0309 318.74 45.7233 317.18 42.0394C315.565 38.2221 314.75 34.1699 314.75 30.0002C314.75 25.8306 315.565 21.7778 317.18 17.9611C318.74 14.2772 320.966 10.9691 323.803 8.1319C326.64 5.29471 329.947 3.06876 333.632 1.50879C337.449 -0.105934 341.501 -0.921265 345.671 -0.921265C349.841 -0.921265 353.893 -0.105934 357.71 1.50879C361.395 3.06877 364.702 5.29472 367.539 8.1319C370.377 10.9691 372.603 14.2772 374.163 17.9611C375.777 21.7778 376.593 25.8306 376.593 30.0002C376.593 34.1699 375.777 38.2221 374.163 42.0394C372.603 45.7233 370.377 49.0309 367.539 51.8686C364.702 54.7058 361.395 56.9317 357.71 58.4917C353.893 60.1064 349.841 60.9212 345.671 60.9212C341.501 60.9212 337.449 60.1064 333.632 58.4917ZM332.503 16.8401C328.983 20.3592 327.048 25.0306 327.048 30.0082C327.048 34.9853 328.983 39.6567 332.503 43.1758C336.023 46.6954 340.694 48.6312 345.671 48.6312C350.649 48.6312 355.32 46.6954 358.839 43.1758C362.358 39.6567 364.295 34.9853 364.295 30.0082C364.295 25.0307 362.358 20.3592 358.839 16.8401C355.32 13.321 350.64 11.3847 345.671 11.3847C340.702 11.3847 336.023 13.321 332.503 16.8401Z" fill="#6C4AB6"/>
<path d="M398.75 22.428V60.6072H386.444V-0.529419H397.346L424.693 38.0022V-0.529419H437V60.6072H425.862L398.75 22.428Z" fill="#6C4AB6"/>
</svg>
