<svg width="326" height="46" viewBox="0 0 326 46" fill="none" xmlns="http://www.w3.org/2000/svg">
<path d="M0 45.7668H29.442V37.2541H0V45.7668ZM0 27.4598H29.442V18.7728H0V27.4598ZM0 0.291382V8.97838H29.442V0.291382H0Z" fill="#FAFAFA"/>
<path d="M37.8523 3.2063L47.0054 0.291382V37.0798H67.4695V45.7664H37.8523V3.2063Z" fill="#FAFAFA"/>
<path d="M73.5413 3.2063L82.6944 0.291382V37.0798H103.158V45.7664H73.5413V3.2063Z" fill="#FAFAFA"/>
<path d="M99.6787 0.291382H109.538L120.557 30.5032L131.576 0.291382H141.376L124.212 45.7668H116.843L99.6787 0.291382Z" fill="#FAFAFA"/>
<path d="M162.242 0.291382H154.354L137.126 45.7668H146.815L158.283 14.2429L169.851 45.7668H179.54L162.242 0.291382Z" fill="#FAFAFA"/>
<path d="M158.302 22.4627L165.54 33.6683L151.125 33.6683L158.302 22.4627Z" fill="#6C4AB6"/>
<path d="M189.359 8.97838H176.999V0.291382H211.047V8.97838H198.512V45.7668H189.359V8.97838Z" fill="#FAFAFA"/>
<path d="M217.272 3.20629L226.425 0.291382V45.7668H217.272V3.20629Z" fill="#FAFAFA"/>
<path d="M248.164 44.1929C245.424 43.0326 242.964 41.3768 240.853 39.2665C238.742 37.1557 237.087 34.6954 235.926 31.9553C234.725 29.1159 234.119 26.1017 234.119 23.0002C234.119 19.8987 234.725 16.8842 235.926 14.0452C237.087 11.305 238.743 8.84436 240.853 6.73398C242.964 4.6236 245.424 2.96788 248.164 1.80754C251.003 0.606464 254.018 0 257.119 0C260.221 0 263.235 0.606464 266.074 1.80754C268.815 2.96789 271.275 4.62361 273.385 6.73398C275.496 8.84436 277.152 11.305 278.312 14.0452C279.513 16.8842 280.119 19.8987 280.119 23.0002C280.119 26.1017 279.513 29.1159 278.312 31.9553C277.152 34.6954 275.496 37.1557 273.385 39.2665C271.275 41.3768 268.815 43.0326 266.074 44.1929C263.235 45.394 260.221 46 257.119 46C254.018 46 251.003 45.394 248.164 44.1929ZM247.324 13.2114C244.706 15.829 243.266 19.3037 243.266 23.0062C243.266 26.7082 244.706 30.1829 247.324 32.8005C249.942 35.4185 253.417 36.8584 257.119 36.8584C260.822 36.8584 264.296 35.4185 266.914 32.8005C269.531 30.1829 270.972 26.7082 270.972 23.0062C270.972 19.3037 269.531 15.829 266.914 13.2114C264.296 10.5938 260.815 9.15352 257.119 9.15352C253.423 9.15352 249.942 10.5938 247.324 13.2114Z" fill="#FAFAFA"/>
<path d="M296.6 17.3677V45.7664H287.447V0.291382H295.557L315.898 28.9522V0.291382H325.052V45.7664H316.767L296.6 17.3677Z" fill="#FAFAFA"/>
</svg>
