<svg width="431" height="50" viewBox="0 0 431 50" fill="none" xmlns="http://www.w3.org/2000/svg">
<path d="M27.2591 1.21459C26.0895 0.982951 24.8771 0.858814 23.6328 0.858814L10.8943 0.858643L0 0.858804V49.9339H10.8945V33.606H23.6328C33.061 33.606 40.7318 26.6613 40.7318 17.2323C40.7318 9.04767 34.9508 2.73837 27.2591 1.21459ZM23.6328 24.1639H10.8945V10.3009H23.6328C27.0543 10.3009 29.8373 13.8106 29.8373 17.2323C29.8373 20.1552 27.8039 23.1348 25.079 23.9436C24.6141 24.0816 24.1315 24.1639 23.6328 24.1639Z" fill="#5B4BEB"/>
<path d="M93.5165 50H81.2063L66.6378 23.7737L52.0762 50H39.0036L60.1013 12.0079L66.2601 0.924683L72.7962 12.6906L93.5165 50Z" fill="#5B4BEB"/>
<path d="M141.008 17.2323C141.008 9.04776 135.227 2.73846 127.535 1.21467C126.366 0.983034 125.153 0.858814 123.909 0.858814L111.17 0.858643L100.276 0.858804V49.9339H111.17V33.606H118.391L131.326 49.9339H143.673L129.94 32.5984C136.4 30.3508 141.008 24.5388 141.008 17.2323ZM123.909 24.1639H111.17V10.3009H123.909C127.33 10.3009 130.113 13.8106 130.113 17.2323C130.113 20.1552 128.08 23.1348 125.355 23.9436C124.89 24.0816 124.407 24.1639 123.909 24.1639Z" fill="#5B4BEB"/>
<path d="M201.939 50H189.629L175.061 23.7737L160.499 50H147.426L168.524 12.0079L174.683 0.924683L181.219 12.6906L201.939 50Z" fill="#5B4BEB"/>
<path d="M219.527 0.858643H208.633V49.9329H219.527V49.9339H243.268V40.492H219.527V0.858643Z" fill="#5B4BEB"/>
<path d="M287.425 6.3544C283.069 2.4079 277.295 0 270.968 0C257.439 0 246.432 11.0076 246.432 24.5376C246.432 38.0677 257.439 49.0753 270.968 49.0753C284.497 49.0753 295.505 38.0677 295.505 24.5376C295.505 18.2103 293.097 12.4352 289.15 8.07896C288.604 7.47615 288.028 6.90054 287.425 6.3544ZM257.012 24.5376C257.012 16.8423 263.273 10.5815 270.968 10.5815C278.663 10.5815 284.924 16.8423 284.924 24.5376C284.924 32.2331 278.663 38.4938 270.968 38.4938C263.273 38.4938 257.012 32.233 257.012 24.5376Z" fill="#5B4BEB"/>
<path d="M352.994 23.336C353.013 23.7339 353.023 24.1344 353.023 24.5376C353.023 25.1337 353.002 25.7246 352.959 26.3093C352.917 26.894 352.854 27.4726 352.77 28.044C352.736 28.2853 352.695 28.5266 352.653 28.7678C352.642 28.8281 352.634 28.8883 352.623 28.9487C350.54 40.3795 340.505 49.0753 328.486 49.0753C327.26 49.0753 326.056 48.9823 324.879 48.808C313.05 47.0577 303.95 36.8402 303.95 24.5376C303.95 11.003 314.952 0 328.486 0C338.184 0 346.585 5.65233 350.561 13.8362H337.532C335.092 11.7674 331.929 10.5192 328.486 10.5192C320.751 10.5192 314.468 16.8096 314.468 24.5376C314.468 32.2657 320.751 38.5562 328.486 38.5562C334.67 38.5562 339.935 34.5252 341.788 28.9516L341.789 28.9488H327.666V19.8321H341.684H352.567C352.793 20.9735 352.936 22.1424 352.994 23.336Z" fill="#5B4BEB"/>
<path d="M363.617 0.858643H374.512V49.9339H363.617V0.858643Z" fill="#5B4BEB"/>
<path d="M396.758 0.858643V25.1753V49.9306H385.864V0.858643H396.758ZM427.151 0.859807H414.079L402.698 16.8305L396.758 25.1753L403.89 33.5129L417.928 49.9339H431L409.83 25.1753L427.151 0.859807Z" fill="#5B4BEB"/>
</svg>
