<svg width="744" height="744" viewBox="0 0 744 744" fill="none" xmlns="http://www.w3.org/2000/svg">
<g clip-path="url(#clip0_1031_7132)">
<path fill-rule="evenodd" clip-rule="evenodd" d="M371.605 242.113L501.1 371.608L371.605 501.104L242.109 371.608L371.605 242.113ZM354.559 17.0471C363.973 7.63319 379.236 7.63321 388.65 17.0471L726.166 354.563C735.58 363.977 735.579 379.24 726.166 388.654L388.65 726.169C379.236 735.583 363.973 735.583 354.559 726.169L17.0434 388.654C7.6295 379.24 7.6295 363.977 17.0434 354.563L354.559 17.0471Z" fill="url(#paint0_linear_1031_7132)"/>
<path fill-rule="evenodd" clip-rule="evenodd" d="M371.604 443.443L299.769 371.608L371.605 299.773L443.44 371.608L371.604 443.443ZM388.65 541.073C379.236 550.487 363.973 550.487 354.559 541.073L202.14 388.653C192.726 379.24 192.726 363.977 202.14 354.563L354.559 202.143C363.973 192.729 379.236 192.729 388.65 202.143L541.069 354.563C550.483 363.977 550.483 379.24 541.069 388.653L388.65 541.073Z" fill="url(#paint1_linear_1031_7132)"/>
</g>
<defs>
<linearGradient id="paint0_linear_1031_7132" x1="139.62" y1="503.125" x2="531.729" y2="124.346" gradientUnits="userSpaceOnUse">
<stop stop-color="#A077F8" stop-opacity="0"/>
<stop offset="1" stop-color="#A077F8"/>
</linearGradient>
<linearGradient id="paint1_linear_1031_7132" x1="475.652" y1="334.046" x2="297.899" y2="502.798" gradientUnits="userSpaceOnUse">
<stop stop-color="#A077F8" stop-opacity="0"/>
<stop offset="1" stop-color="#A077F8"/>
</linearGradient>
<clipPath id="clip0_1031_7132">
<rect width="743.215" height="743.212" fill="white" transform="matrix(0 -1 -1 0 743.211 743.216)"/>
</clipPath>
</defs>
</svg>
